<?xml version="1.0" encoding="UTF-8"?>
<svg fill="none" viewBox="0 0 225 154" xmlns="http://www.w3.org/2000/svg">
<style>path {
            fill: #034AD8;
        }
        @media (prefers-color-scheme: dark) {
            path {
                fill: #ffffff;
            }
        }</style>
<path d="m87.496 126.06c1.0671 0.61 2.2103 1.22 3.3535 1.753 8.5363 3.963 12.5 6.555 12.5 12.042 0 5.869-4.8021 10.671-10.671 10.671-4.573 0-8.3838-2.897-9.9081-6.936-5.5638 5.64-13.186 9.146-21.722 9.146-16.844 0-30.487-13.643-30.487-30.487 0-1.6 0.2287-3.201 0.4573-4.801-15.624-4.573-27.667-17.606-30.41-33.917-0.38108-2.3628-0.60973-4.7255-0.60973-7.1644s0.22865-4.8016 0.60973-7.1643c2.82-16.234 14.786-29.343 30.41-33.916-0.0095-0.0668-0.0191-0.1335-0.0286-0.2-0.2187-1.5281-0.4287-2.9948-0.4287-4.6016 0-16.844 13.643-30.487 30.487-30.487 8.46 0 16.158 3.506 21.722 9.146 1.5243-4.0395 5.3351-6.9357 9.9081-6.9357 5.8687 0 10.671 4.8016 10.671 10.67 0 5.9449-3.9637 8.5362-12.5 12.5-0.8457 0.3946-1.6496 0.831-2.4736 1.2782-0.2899 0.1574-0.5823 0.3161-0.8799 0.4748-0.6859 0.3811-1.3719 0.7621-1.9816 1.1432-0.5335 0.3049-0.9908 0.6097-1.4481 0.9146-0.1525 0.0762-0.2858 0.1715-0.4192 0.2668-0.1334 0.0952-0.2668 0.1905-0.4192 0.2667-2.5914 1.6768-4.9541 3.6584-7.2406 5.7163-0.0762 0.0381-0.1334 0.0952-0.1905 0.1524-0.0572 0.0572-0.1143 0.1143-0.1906 0.1524-0.9146 0.9146-1.8291 1.8292-2.6675 2.7438-0.1143 0.1143-0.2287 0.2477-0.343 0.3811s-0.2286 0.2668-0.343 0.3811c-0.3599 0.4499-0.7317 0.888-1.1013 1.3237-0.5695 0.6712-1.134 1.3365-1.6425 2.0298-7.0881 9.4509-11.432 21.264-11.432 33.993 0 12.728 4.2681 24.541 11.432 33.992 0.8384 1.143 1.753 2.287 2.7438 3.354 0.1144 0.114 0.2287 0.247 0.343 0.381 0.1143 0.133 0.2287 0.266 0.343 0.381 0.6277 0.742 1.2981 1.398 1.9792 2.065 0.2287 0.224 0.4585 0.449 0.6883 0.679 0.0763 0.038 0.1334 0.095 0.1906 0.152 0.0571 0.057 0.1143 0.114 0.1905 0.152 2.2865 2.058 4.6492 4.04 7.2406 5.717 0.1524 0.076 0.2858 0.171 0.4192 0.266 0.1334 0.096 0.2667 0.191 0.4192 0.267 0.2286 0.153 0.4764 0.305 0.7241 0.458 0.2477 0.152 0.4954 0.304 0.724 0.457 0.343 0.19 0.6669 0.381 0.9908 0.571 0.3239 0.191 0.6479 0.382 0.9908 0.572zm105.94-90.469c15.625 4.573 27.667 17.606 30.411 33.916 0.381 2.2865 0.609 4.7255 0.609 7.6217 0 2.4389-0.228 4.8016-0.609 7.1643-2.82 16.235-14.786 29.344-30.411 33.917l0.029 0.2c0.219 1.528 0.429 2.995 0.429 4.601 0 16.844-13.643 30.487-30.487 30.487-8.46 0-16.158-3.506-21.722-9.146-1.524 4.039-5.335 6.936-9.908 6.936-5.868 0-10.67-4.802-10.67-10.671 0-5.944 3.963-8.536 12.499-12.499 0.846-0.395 1.65-0.831 2.474-1.278 0.29-0.158 0.582-0.316 0.88-0.475 0.686-0.381 1.372-0.762 1.982-1.143 0.533-0.305 0.99-0.61 1.448-0.915 0.152-0.076 0.285-0.171 0.419-0.267 0.133-0.095 0.267-0.19 0.419-0.266 2.591-1.677 4.954-3.659 7.241-5.717 0.076-0.038 0.133-0.095 0.19-0.152s0.114-0.114 0.191-0.153c0.914-0.914 1.829-1.829 2.667-2.743 0.115-0.115 0.229-0.248 0.343-0.381 0.115-0.134 0.229-0.267 0.343-0.381 0.36-0.45 0.732-0.889 1.102-1.324 0.569-0.671 1.134-1.337 1.642-2.03 7.088-9.451 11.432-21.264 11.432-33.993 0-12.728-4.268-24.542-11.432-33.992-0.838-1.1433-1.753-2.2865-2.744-3.3535-0.114-0.1144-0.228-0.2477-0.343-0.3811-0.114-0.1334-0.228-0.2668-0.343-0.3811-0.838-0.9908-1.753-1.9054-2.667-2.7438-0.077-0.0381-0.134-0.0953-0.191-0.1524-0.057-0.0572-0.114-0.1144-0.19-0.1525-2.287-2.0578-4.65-3.9632-7.241-5.7162-0.152-0.0762-0.286-0.1715-0.419-0.2667-0.134-0.0953-0.267-0.1906-0.419-0.2668-0.229-0.1525-0.477-0.3049-0.724-0.4574-0.248-0.1524-0.496-0.3048-0.724-0.4572-0.343-0.1906-0.667-0.3811-0.991-0.5716-0.324-0.1906-0.648-0.3811-0.991-0.5717-1.067-0.6097-2.21-1.2194-3.354-1.7529-8.46-4.0395-12.499-6.6309-12.499-12.5 0-5.8687 4.802-10.67 10.67-10.67 4.573 0 8.384 2.8962 9.908 6.9357 5.564-5.64 13.186-9.146 21.722-9.146 16.844 0 30.487 13.643 30.487 30.487 0 1.6004-0.229 3.2008-0.458 4.8013v3e-4z" clip-rule="evenodd" fill-rule="evenodd"/>
<path d="m145.5 76.674c0-18.368-14.862-33.23-33.23-33.23-18.368 0-33.23 14.862-33.23 33.23s14.862 33.23 33.23 33.23c18.368 0 33.23-14.862 33.23-33.23z"/>
</svg>
